# xmcd
#
# Track frame offsets: 
#        150
#        11255
#        34775
#        51430
#        66517
#        95310
#        115402
#        134210
#        151232
#        166020
#
# Disc length: 2509 seconds
#
# Revision: 2
# Processed by: cddbd v1.5.2PL0 Copyright (c) Steve Scherf et al.
# Submitted via: ExactAudioCopy v1.0b3
#
DISCID=8309cb0a
DTITLE=BRYAN FERRY - THE BRIDE STRIPPED BARE (REMASTERED HDCD)
DYEAR=1978
DGENRE=Pop Rock
TTITLE0=Sign Of The Times (1999 Digital Remaster)
TTITLE1=Can't Let Go (1999 Digital Remaster)
TTITLE2=Hold On (I'm Coming) (1999 Digital Remaster)
TTITLE3=The Same Old Blues (1999 Digital Remaster)
TTITLE4=When She Walks In The Room (1999 Digital Remaster)
TTITLE5=Take Me To The River (1999 Digital Remaster)
TTITLE6=What Goes On (1999 Digital Remaster)
TTITLE7=Carrickfergus (1999 Digital Remaster)
TTITLE8=That's How Strong My Love Is (1999 Digital Remaster)
TTITLE9=This Island Earth (1999 Digital Remaster)
EXTD=UPC 72438476062\n\nFERRYCD5 YEAR: 1978
EXTT0=
EXTT1=
EXTT2=
EXTT3=
EXTT4=
EXTT5=
EXTT6=
EXTT7=
EXTT8=
EXTT9=
PLAYORDER=
